<mxfile host="app.diagrams.net" agent="Mozilla/5.0 (Windows NT 10.0; Win64; x64) AppleWebKit/537.36 (KHTML, like Gecko) Chrome/130.0.0.0 Safari/537.36" version="24.8.6">
  <diagram name="Page-1" id="wGb8WQe8dFVdb0Nz1Q5S">
    <mxGraphModel dx="1687" dy="889" grid="1" gridSize="10" guides="1" tooltips="1" connect="1" arrows="1" fold="1" page="1" pageScale="1" pageWidth="827" pageHeight="1169" math="0" shadow="0">
      <root>
        <mxCell id="0" />
        <mxCell id="1" parent="0" />
        <mxCell id="0nGfKhoNtDC8-pFZN1kh-23" value="&lt;h2&gt;&lt;br&gt;&lt;/h2&gt;" style="html=1;whiteSpace=wrap;align=center;" vertex="1" parent="1">
          <mxGeometry x="750" y="30" width="330" height="540" as="geometry" />
        </mxCell>
        <mxCell id="0nGfKhoNtDC8-pFZN1kh-4" value="comptable" style="shape=umlActor;verticalLabelPosition=bottom;verticalAlign=top;html=1;outlineConnect=0;" vertex="1" parent="1">
          <mxGeometry x="620" y="763" width="30" height="60" as="geometry" />
        </mxCell>
        <mxCell id="0nGfKhoNtDC8-pFZN1kh-9" value="chef d&#39;atelier" style="shape=umlActor;verticalLabelPosition=bottom;verticalAlign=top;html=1;outlineConnect=0;" vertex="1" parent="1">
          <mxGeometry x="580" y="310" width="30" height="60" as="geometry" />
        </mxCell>
        <mxCell id="0nGfKhoNtDC8-pFZN1kh-13" value="magasignier" style="shape=umlActor;verticalLabelPosition=bottom;verticalAlign=top;html=1;outlineConnect=0;" vertex="1" parent="1">
          <mxGeometry x="399" y="570" width="30" height="60" as="geometry" />
        </mxCell>
        <mxCell id="0nGfKhoNtDC8-pFZN1kh-14" value="enregistrer un véhicule" style="ellipse;whiteSpace=wrap;html=1;" vertex="1" parent="1">
          <mxGeometry x="945" y="150" width="100" height="50" as="geometry" />
        </mxCell>
        <mxCell id="0nGfKhoNtDC8-pFZN1kh-17" value="enregistrer réparations&amp;nbsp;&lt;div&gt;a faire&lt;/div&gt;" style="ellipse;whiteSpace=wrap;html=1;" vertex="1" parent="1">
          <mxGeometry x="770" y="170" width="140" height="70" as="geometry" />
        </mxCell>
        <mxCell id="0nGfKhoNtDC8-pFZN1kh-18" value="définir quel mécanicien travail sur quel véhicule" style="ellipse;whiteSpace=wrap;html=1;" vertex="1" parent="1">
          <mxGeometry x="770" y="260" width="140" height="70" as="geometry" />
        </mxCell>
        <mxCell id="0nGfKhoNtDC8-pFZN1kh-19" value="vérifier réparations" style="ellipse;whiteSpace=wrap;html=1;" vertex="1" parent="1">
          <mxGeometry x="925" y="330" width="140" height="70" as="geometry" />
        </mxCell>
        <mxCell id="0nGfKhoNtDC8-pFZN1kh-20" value="clôturé dossier&lt;div&gt;&amp;nbsp;réparation&lt;/div&gt;" style="ellipse;whiteSpace=wrap;html=1;" vertex="1" parent="1">
          <mxGeometry x="800" y="405" width="140" height="70" as="geometry" />
        </mxCell>
        <mxCell id="0nGfKhoNtDC8-pFZN1kh-21" value="crée un dossier de réparation" style="ellipse;whiteSpace=wrap;html=1;" vertex="1" parent="1">
          <mxGeometry x="770" y="60" width="140" height="70" as="geometry" />
        </mxCell>
        <mxCell id="0nGfKhoNtDC8-pFZN1kh-25" value="mécanicien" style="shape=umlActor;verticalLabelPosition=bottom;verticalAlign=top;html=1;" vertex="1" parent="1">
          <mxGeometry x="369" y="165" width="30" height="60" as="geometry" />
        </mxCell>
        <mxCell id="0nGfKhoNtDC8-pFZN1kh-26" value="" style="html=1;whiteSpace=wrap;" vertex="1" parent="1">
          <mxGeometry x="30" y="70" width="240" height="270" as="geometry" />
        </mxCell>
        <mxCell id="0nGfKhoNtDC8-pFZN1kh-28" value="faire les réparations&lt;div&gt;enregistrés&lt;/div&gt;" style="ellipse;whiteSpace=wrap;html=1;" vertex="1" parent="1">
          <mxGeometry x="70" y="110" width="140" height="70" as="geometry" />
        </mxCell>
        <mxCell id="0nGfKhoNtDC8-pFZN1kh-29" value="changer des pièces" style="ellipse;whiteSpace=wrap;html=1;" vertex="1" parent="1">
          <mxGeometry x="70" y="230" width="140" height="70" as="geometry" />
        </mxCell>
        <mxCell id="0nGfKhoNtDC8-pFZN1kh-31" value="" style="html=1;whiteSpace=wrap;" vertex="1" parent="1">
          <mxGeometry x="30" y="450" width="330" height="360" as="geometry" />
        </mxCell>
        <mxCell id="0nGfKhoNtDC8-pFZN1kh-33" value="donner les pieces" style="ellipse;whiteSpace=wrap;html=1;" vertex="1" parent="1">
          <mxGeometry x="130" y="460" width="140" height="70" as="geometry" />
        </mxCell>
        <mxCell id="0nGfKhoNtDC8-pFZN1kh-34" value="commander les pieces" style="ellipse;whiteSpace=wrap;html=1;" vertex="1" parent="1">
          <mxGeometry x="40" y="595" width="140" height="70" as="geometry" />
        </mxCell>
        <mxCell id="0nGfKhoNtDC8-pFZN1kh-35" value="réceptionner les pièces" style="ellipse;whiteSpace=wrap;html=1;" vertex="1" parent="1">
          <mxGeometry x="200" y="704" width="140" height="70" as="geometry" />
        </mxCell>
        <mxCell id="0nGfKhoNtDC8-pFZN1kh-37" value="envoyer liste des réparations" style="ellipse;whiteSpace=wrap;html=1;" vertex="1" parent="1">
          <mxGeometry x="905" y="495" width="140" height="70" as="geometry" />
        </mxCell>
        <mxCell id="0nGfKhoNtDC8-pFZN1kh-38" value="" style="html=1;whiteSpace=wrap;" vertex="1" parent="1">
          <mxGeometry x="750" y="640" width="250" height="330" as="geometry" />
        </mxCell>
        <mxCell id="0nGfKhoNtDC8-pFZN1kh-39" value="réceptionne les listes réparations" style="ellipse;whiteSpace=wrap;html=1;" vertex="1" parent="1">
          <mxGeometry x="805" y="680" width="140" height="70" as="geometry" />
        </mxCell>
        <mxCell id="0nGfKhoNtDC8-pFZN1kh-40" value="émet factures" style="ellipse;whiteSpace=wrap;html=1;" vertex="1" parent="1">
          <mxGeometry x="805" y="770" width="140" height="70" as="geometry" />
        </mxCell>
        <mxCell id="0nGfKhoNtDC8-pFZN1kh-41" value="imprime les factures" style="ellipse;whiteSpace=wrap;html=1;" vertex="1" parent="1">
          <mxGeometry x="805" y="890" width="140" height="70" as="geometry" />
        </mxCell>
        <mxCell id="0nGfKhoNtDC8-pFZN1kh-42" value="logiciel de gestion des réparations" style="text;align=left;fontStyle=1;verticalAlign=middle;spacingLeft=3;spacingRight=3;strokeColor=none;rotatable=0;points=[[0,0.5],[1,0.5]];portConstraint=eastwest;fontSize=19;" vertex="1" parent="1">
          <mxGeometry x="750" y="20" width="456" height="40" as="geometry" />
        </mxCell>
        <mxCell id="0nGfKhoNtDC8-pFZN1kh-43" value="&lt;font style=&quot;font-size: 19px;&quot;&gt;Logiciel de comptabilité&lt;/font&gt;" style="text;align=left;fontStyle=1;verticalAlign=middle;spacingLeft=3;spacingRight=3;strokeColor=none;rotatable=0;points=[[0,0.5],[1,0.5]];portConstraint=eastwest;html=1;" vertex="1" parent="1">
          <mxGeometry x="750" y="640" width="80" height="26" as="geometry" />
        </mxCell>
        <mxCell id="0nGfKhoNtDC8-pFZN1kh-44" value="&lt;font style=&quot;font-size: 19px;&quot;&gt;Gestion du stocke et des pièces&lt;/font&gt;" style="text;align=left;fontStyle=1;verticalAlign=middle;spacingLeft=3;spacingRight=3;strokeColor=none;rotatable=0;points=[[0,0.5],[1,0.5]];portConstraint=eastwest;html=1;" vertex="1" parent="1">
          <mxGeometry x="30" y="780" width="80" height="26" as="geometry" />
        </mxCell>
        <mxCell id="0nGfKhoNtDC8-pFZN1kh-45" value="&lt;font style=&quot;font-size: 19px;&quot;&gt;Travail du mécanicien&amp;nbsp;&lt;/font&gt;" style="text;align=left;fontStyle=1;verticalAlign=middle;spacingLeft=3;spacingRight=3;strokeColor=none;rotatable=0;points=[[0,0.5],[1,0.5]];portConstraint=eastwest;html=1;" vertex="1" parent="1">
          <mxGeometry x="30" y="72" width="80" height="26" as="geometry" />
        </mxCell>
        <mxCell id="0nGfKhoNtDC8-pFZN1kh-58" value="" style="html=1;whiteSpace=wrap;" vertex="1" parent="1">
          <mxGeometry x="1260" y="210" width="710" height="520" as="geometry" />
        </mxCell>
        <mxCell id="0nGfKhoNtDC8-pFZN1kh-59" value="enregistrement&amp;nbsp;&lt;div&gt;véhicules&amp;nbsp;&lt;/div&gt;" style="ellipse;whiteSpace=wrap;html=1;" vertex="1" parent="1">
          <mxGeometry x="1610" y="330" width="140" height="70" as="geometry" />
        </mxCell>
        <mxCell id="0nGfKhoNtDC8-pFZN1kh-60" value="chef d&#39;atelier" style="shape=umlActor;verticalLabelPosition=bottom;verticalAlign=top;html=1;outlineConnect=0;" vertex="1" parent="1">
          <mxGeometry x="1600" y="226" width="30" height="60" as="geometry" />
        </mxCell>
        <mxCell id="0nGfKhoNtDC8-pFZN1kh-61" value="comptable" style="shape=umlActor;verticalLabelPosition=bottom;verticalAlign=top;html=1;outlineConnect=0;" vertex="1" parent="1">
          <mxGeometry x="1920" y="410" width="30" height="60" as="geometry" />
        </mxCell>
        <mxCell id="0nGfKhoNtDC8-pFZN1kh-62" value="Facturation" style="ellipse;whiteSpace=wrap;html=1;" vertex="1" parent="1">
          <mxGeometry x="1760" y="500" width="140" height="70" as="geometry" />
        </mxCell>
        <mxCell id="0nGfKhoNtDC8-pFZN1kh-63" value="magasignier" style="shape=umlActor;verticalLabelPosition=bottom;verticalAlign=top;html=1;outlineConnect=0;" vertex="1" parent="1">
          <mxGeometry x="1870" y="623" width="30" height="60" as="geometry" />
        </mxCell>
        <mxCell id="0nGfKhoNtDC8-pFZN1kh-64" value="mécanicien" style="shape=umlActor;verticalLabelPosition=bottom;verticalAlign=top;html=1;" vertex="1" parent="1">
          <mxGeometry x="1280" y="410" width="30" height="60" as="geometry" />
        </mxCell>
        <mxCell id="0nGfKhoNtDC8-pFZN1kh-65" value="réparé véhicule" style="ellipse;whiteSpace=wrap;html=1;" vertex="1" parent="1">
          <mxGeometry x="1405" y="415" width="140" height="70" as="geometry" />
        </mxCell>
        <mxCell id="0nGfKhoNtDC8-pFZN1kh-66" value="fournir pièces" style="ellipse;whiteSpace=wrap;html=1;" vertex="1" parent="1">
          <mxGeometry x="1514" y="540" width="140" height="70" as="geometry" />
        </mxCell>
        <mxCell id="0nGfKhoNtDC8-pFZN1kh-76" value="extend" style="endArrow=open;endSize=12;dashed=1;html=1;rounded=0;entryX=0.5;entryY=0;entryDx=0;entryDy=0;exitX=0.5;exitY=1;exitDx=0;exitDy=0;" edge="1" parent="1" source="0nGfKhoNtDC8-pFZN1kh-29" target="0nGfKhoNtDC8-pFZN1kh-33">
          <mxGeometry width="160" relative="1" as="geometry">
            <mxPoint x="410" y="320" as="sourcePoint" />
            <mxPoint x="460" y="314" as="targetPoint" />
          </mxGeometry>
        </mxCell>
        <mxCell id="0nGfKhoNtDC8-pFZN1kh-78" value="include" style="endArrow=open;endSize=12;dashed=1;html=1;rounded=0;exitX=1;exitY=0.5;exitDx=0;exitDy=0;" edge="1" parent="1" source="0nGfKhoNtDC8-pFZN1kh-21" target="0nGfKhoNtDC8-pFZN1kh-14">
          <mxGeometry width="160" relative="1" as="geometry">
            <mxPoint x="630" y="340" as="sourcePoint" />
            <mxPoint x="790" y="340" as="targetPoint" />
          </mxGeometry>
        </mxCell>
        <mxCell id="0nGfKhoNtDC8-pFZN1kh-79" value="include" style="endArrow=open;endSize=12;dashed=1;html=1;rounded=0;exitX=0.5;exitY=1;exitDx=0;exitDy=0;" edge="1" parent="1" source="0nGfKhoNtDC8-pFZN1kh-21" target="0nGfKhoNtDC8-pFZN1kh-17">
          <mxGeometry width="160" relative="1" as="geometry">
            <mxPoint x="630" y="340" as="sourcePoint" />
            <mxPoint x="790" y="340" as="targetPoint" />
          </mxGeometry>
        </mxCell>
        <mxCell id="0nGfKhoNtDC8-pFZN1kh-80" value="include" style="endArrow=open;endSize=12;dashed=1;html=1;rounded=0;entryX=0.565;entryY=0.708;entryDx=0;entryDy=0;entryPerimeter=0;exitX=0;exitY=0;exitDx=0;exitDy=0;" edge="1" parent="1" source="0nGfKhoNtDC8-pFZN1kh-18" target="0nGfKhoNtDC8-pFZN1kh-25">
          <mxGeometry width="160" relative="1" as="geometry">
            <mxPoint x="630" y="340" as="sourcePoint" />
            <mxPoint x="790" y="340" as="targetPoint" />
          </mxGeometry>
        </mxCell>
        <mxCell id="0nGfKhoNtDC8-pFZN1kh-86" value="include" style="endArrow=open;endSize=12;dashed=1;html=1;rounded=0;exitX=0.5;exitY=1;exitDx=0;exitDy=0;entryX=0;entryY=0.5;entryDx=0;entryDy=0;" edge="1" parent="1" source="0nGfKhoNtDC8-pFZN1kh-20" target="0nGfKhoNtDC8-pFZN1kh-37">
          <mxGeometry width="160" relative="1" as="geometry">
            <mxPoint x="480" y="355" as="sourcePoint" />
            <mxPoint x="816" y="560" as="targetPoint" />
          </mxGeometry>
        </mxCell>
        <mxCell id="0nGfKhoNtDC8-pFZN1kh-88" value="extend" style="endArrow=open;endSize=12;dashed=1;html=1;rounded=0;exitX=0.5;exitY=1;exitDx=0;exitDy=0;entryX=0.5;entryY=0;entryDx=0;entryDy=0;" edge="1" parent="1" source="0nGfKhoNtDC8-pFZN1kh-33" target="0nGfKhoNtDC8-pFZN1kh-34">
          <mxGeometry width="160" relative="1" as="geometry">
            <mxPoint x="630" y="640" as="sourcePoint" />
            <mxPoint x="790" y="640" as="targetPoint" />
          </mxGeometry>
        </mxCell>
        <mxCell id="0nGfKhoNtDC8-pFZN1kh-89" value="include" style="endArrow=open;endSize=12;dashed=1;html=1;rounded=0;exitX=0.5;exitY=1;exitDx=0;exitDy=0;entryX=0;entryY=0.5;entryDx=0;entryDy=0;" edge="1" parent="1" source="0nGfKhoNtDC8-pFZN1kh-34" target="0nGfKhoNtDC8-pFZN1kh-35">
          <mxGeometry width="160" relative="1" as="geometry">
            <mxPoint x="630" y="640" as="sourcePoint" />
            <mxPoint x="790" y="640" as="targetPoint" />
          </mxGeometry>
        </mxCell>
        <mxCell id="0nGfKhoNtDC8-pFZN1kh-94" value="include" style="endArrow=open;endSize=12;dashed=1;html=1;rounded=0;exitX=0.5;exitY=1;exitDx=0;exitDy=0;entryX=0.5;entryY=0;entryDx=0;entryDy=0;" edge="1" parent="1" source="0nGfKhoNtDC8-pFZN1kh-40" target="0nGfKhoNtDC8-pFZN1kh-41">
          <mxGeometry width="160" relative="1" as="geometry">
            <mxPoint x="630" y="640" as="sourcePoint" />
            <mxPoint x="790" y="640" as="targetPoint" />
          </mxGeometry>
        </mxCell>
        <mxCell id="0nGfKhoNtDC8-pFZN1kh-95" value="designer mécanicien" style="ellipse;whiteSpace=wrap;html=1;" vertex="1" parent="1">
          <mxGeometry x="1280" y="225" width="140" height="70" as="geometry" />
        </mxCell>
        <mxCell id="0nGfKhoNtDC8-pFZN1kh-101" value="avoir besoin&lt;div&gt;de pièces&lt;/div&gt;" style="ellipse;whiteSpace=wrap;html=1;" vertex="1" parent="1">
          <mxGeometry x="1330" y="540" width="140" height="70" as="geometry" />
        </mxCell>
        <mxCell id="0nGfKhoNtDC8-pFZN1kh-102" value="extend" style="endArrow=open;endSize=12;dashed=1;html=1;rounded=0;exitX=0;exitY=1;exitDx=0;exitDy=0;entryX=0.5;entryY=0;entryDx=0;entryDy=0;" edge="1" parent="1" source="0nGfKhoNtDC8-pFZN1kh-65" target="0nGfKhoNtDC8-pFZN1kh-101">
          <mxGeometry width="160" relative="1" as="geometry">
            <mxPoint x="1590" y="485" as="sourcePoint" />
            <mxPoint x="1750" y="485" as="targetPoint" />
          </mxGeometry>
        </mxCell>
        <mxCell id="0nGfKhoNtDC8-pFZN1kh-105" value="include" style="endArrow=open;endSize=12;dashed=1;html=1;rounded=0;exitX=0.5;exitY=0;exitDx=0;exitDy=0;entryX=1;entryY=0.5;entryDx=0;entryDy=0;" edge="1" parent="1" source="0nGfKhoNtDC8-pFZN1kh-66" target="0nGfKhoNtDC8-pFZN1kh-65">
          <mxGeometry width="160" relative="1" as="geometry">
            <mxPoint x="1590" y="485" as="sourcePoint" />
            <mxPoint x="1750" y="485" as="targetPoint" />
          </mxGeometry>
        </mxCell>
        <mxCell id="0nGfKhoNtDC8-pFZN1kh-108" value="&amp;nbsp;liste les réparations&lt;div&gt;et des pièces&lt;/div&gt;" style="ellipse;whiteSpace=wrap;html=1;" vertex="1" parent="1">
          <mxGeometry x="1740" y="265" width="140" height="70" as="geometry" />
        </mxCell>
        <mxCell id="0nGfKhoNtDC8-pFZN1kh-111" value="&lt;font style=&quot;font-size: 19px;&quot;&gt;Vue général&lt;/font&gt;" style="text;align=left;fontStyle=1;verticalAlign=middle;spacingLeft=3;spacingRight=3;strokeColor=none;rotatable=0;points=[[0,0.5],[1,0.5]];portConstraint=eastwest;html=1;" vertex="1" parent="1">
          <mxGeometry x="1260" y="704" width="80" height="26" as="geometry" />
        </mxCell>
        <mxCell id="0nGfKhoNtDC8-pFZN1kh-112" value="" style="endArrow=open;endFill=1;endSize=12;html=1;rounded=0;exitX=0.447;exitY=0.669;exitDx=0;exitDy=0;exitPerimeter=0;entryX=1;entryY=0.5;entryDx=0;entryDy=0;" edge="1" parent="1" source="0nGfKhoNtDC8-pFZN1kh-25" target="0nGfKhoNtDC8-pFZN1kh-28">
          <mxGeometry width="160" relative="1" as="geometry">
            <mxPoint x="690" y="400" as="sourcePoint" />
            <mxPoint x="850" y="400" as="targetPoint" />
          </mxGeometry>
        </mxCell>
        <mxCell id="0nGfKhoNtDC8-pFZN1kh-113" value="" style="endArrow=open;endFill=1;endSize=12;html=1;rounded=0;exitX=0.486;exitY=0.669;exitDx=0;exitDy=0;exitPerimeter=0;" edge="1" parent="1" source="0nGfKhoNtDC8-pFZN1kh-25" target="0nGfKhoNtDC8-pFZN1kh-29">
          <mxGeometry width="160" relative="1" as="geometry">
            <mxPoint x="392" y="215" as="sourcePoint" />
            <mxPoint x="220" y="155" as="targetPoint" />
          </mxGeometry>
        </mxCell>
        <mxCell id="0nGfKhoNtDC8-pFZN1kh-114" value="" style="endArrow=open;endFill=1;endSize=12;html=1;rounded=0;exitX=0.5;exitY=0.5;exitDx=0;exitDy=0;exitPerimeter=0;entryX=1;entryY=0.5;entryDx=0;entryDy=0;" edge="1" parent="1" source="0nGfKhoNtDC8-pFZN1kh-13" target="0nGfKhoNtDC8-pFZN1kh-33">
          <mxGeometry width="160" relative="1" as="geometry">
            <mxPoint x="690" y="520" as="sourcePoint" />
            <mxPoint x="850" y="520" as="targetPoint" />
          </mxGeometry>
        </mxCell>
        <mxCell id="0nGfKhoNtDC8-pFZN1kh-115" value="" style="endArrow=open;endFill=1;endSize=12;html=1;rounded=0;exitX=0.5;exitY=0.5;exitDx=0;exitDy=0;exitPerimeter=0;" edge="1" parent="1" source="0nGfKhoNtDC8-pFZN1kh-13" target="0nGfKhoNtDC8-pFZN1kh-34">
          <mxGeometry width="160" relative="1" as="geometry">
            <mxPoint x="424" y="610" as="sourcePoint" />
            <mxPoint x="280" y="505" as="targetPoint" />
          </mxGeometry>
        </mxCell>
        <mxCell id="0nGfKhoNtDC8-pFZN1kh-116" value="" style="endArrow=open;endFill=1;endSize=12;html=1;rounded=0;exitX=0.5;exitY=0.5;exitDx=0;exitDy=0;exitPerimeter=0;entryX=1;entryY=0;entryDx=0;entryDy=0;" edge="1" parent="1" source="0nGfKhoNtDC8-pFZN1kh-13" target="0nGfKhoNtDC8-pFZN1kh-35">
          <mxGeometry width="160" relative="1" as="geometry">
            <mxPoint x="424" y="610" as="sourcePoint" />
            <mxPoint x="189" y="633" as="targetPoint" />
          </mxGeometry>
        </mxCell>
        <mxCell id="0nGfKhoNtDC8-pFZN1kh-117" value="" style="endArrow=open;endFill=1;endSize=12;html=1;rounded=0;exitX=0.5;exitY=0.5;exitDx=0;exitDy=0;exitPerimeter=0;entryX=0;entryY=0.5;entryDx=0;entryDy=0;" edge="1" parent="1" source="0nGfKhoNtDC8-pFZN1kh-9" target="0nGfKhoNtDC8-pFZN1kh-21">
          <mxGeometry width="160" relative="1" as="geometry">
            <mxPoint x="690" y="290" as="sourcePoint" />
            <mxPoint x="850" y="290" as="targetPoint" />
          </mxGeometry>
        </mxCell>
        <mxCell id="0nGfKhoNtDC8-pFZN1kh-118" value="" style="endArrow=open;endFill=1;endSize=12;html=1;rounded=0;entryX=0;entryY=0.5;entryDx=0;entryDy=0;exitX=0.5;exitY=0.5;exitDx=0;exitDy=0;exitPerimeter=0;" edge="1" parent="1" source="0nGfKhoNtDC8-pFZN1kh-9" target="0nGfKhoNtDC8-pFZN1kh-17">
          <mxGeometry width="160" relative="1" as="geometry">
            <mxPoint x="600" y="340" as="sourcePoint" />
            <mxPoint x="850" y="290" as="targetPoint" />
          </mxGeometry>
        </mxCell>
        <mxCell id="0nGfKhoNtDC8-pFZN1kh-119" value="" style="endArrow=open;endFill=1;endSize=12;html=1;rounded=0;exitX=0.5;exitY=0.5;exitDx=0;exitDy=0;exitPerimeter=0;entryX=0;entryY=0.5;entryDx=0;entryDy=0;" edge="1" parent="1" source="0nGfKhoNtDC8-pFZN1kh-9" target="0nGfKhoNtDC8-pFZN1kh-19">
          <mxGeometry width="160" relative="1" as="geometry">
            <mxPoint x="690" y="290" as="sourcePoint" />
            <mxPoint x="850" y="290" as="targetPoint" />
          </mxGeometry>
        </mxCell>
        <mxCell id="0nGfKhoNtDC8-pFZN1kh-120" value="" style="endArrow=open;endFill=1;endSize=12;html=1;rounded=0;entryX=0.072;entryY=0.762;entryDx=0;entryDy=0;entryPerimeter=0;exitX=0.5;exitY=0.5;exitDx=0;exitDy=0;exitPerimeter=0;" edge="1" parent="1" source="0nGfKhoNtDC8-pFZN1kh-9" target="0nGfKhoNtDC8-pFZN1kh-18">
          <mxGeometry width="160" relative="1" as="geometry">
            <mxPoint x="590" y="340" as="sourcePoint" />
            <mxPoint x="850" y="290" as="targetPoint" />
          </mxGeometry>
        </mxCell>
        <mxCell id="0nGfKhoNtDC8-pFZN1kh-121" value="" style="endArrow=open;endFill=1;endSize=12;html=1;rounded=0;exitX=1;exitY=1;exitDx=0;exitDy=0;exitPerimeter=0;entryX=0;entryY=0.5;entryDx=0;entryDy=0;" edge="1" parent="1" source="0nGfKhoNtDC8-pFZN1kh-9" target="0nGfKhoNtDC8-pFZN1kh-20">
          <mxGeometry width="160" relative="1" as="geometry">
            <mxPoint x="690" y="290" as="sourcePoint" />
            <mxPoint x="850" y="290" as="targetPoint" />
          </mxGeometry>
        </mxCell>
        <mxCell id="0nGfKhoNtDC8-pFZN1kh-123" value="" style="endArrow=open;endFill=1;endSize=12;html=1;rounded=0;exitX=0.5;exitY=0.5;exitDx=0;exitDy=0;exitPerimeter=0;entryX=0;entryY=0.5;entryDx=0;entryDy=0;" edge="1" parent="1" source="0nGfKhoNtDC8-pFZN1kh-4" target="0nGfKhoNtDC8-pFZN1kh-39">
          <mxGeometry width="160" relative="1" as="geometry">
            <mxPoint x="690" y="640" as="sourcePoint" />
            <mxPoint x="850" y="640" as="targetPoint" />
          </mxGeometry>
        </mxCell>
        <mxCell id="0nGfKhoNtDC8-pFZN1kh-124" value="" style="endArrow=open;endFill=1;endSize=12;html=1;rounded=0;exitX=0.5;exitY=0.5;exitDx=0;exitDy=0;exitPerimeter=0;entryX=0;entryY=0.5;entryDx=0;entryDy=0;" edge="1" parent="1" source="0nGfKhoNtDC8-pFZN1kh-4" target="0nGfKhoNtDC8-pFZN1kh-40">
          <mxGeometry width="160" relative="1" as="geometry">
            <mxPoint x="690" y="640" as="sourcePoint" />
            <mxPoint x="850" y="640" as="targetPoint" />
          </mxGeometry>
        </mxCell>
        <mxCell id="0nGfKhoNtDC8-pFZN1kh-125" value="" style="endArrow=open;endFill=1;endSize=12;html=1;rounded=0;exitX=0.5;exitY=0.5;exitDx=0;exitDy=0;exitPerimeter=0;entryX=0;entryY=0.5;entryDx=0;entryDy=0;" edge="1" parent="1" source="0nGfKhoNtDC8-pFZN1kh-4" target="0nGfKhoNtDC8-pFZN1kh-41">
          <mxGeometry width="160" relative="1" as="geometry">
            <mxPoint x="690" y="640" as="sourcePoint" />
            <mxPoint x="850" y="640" as="targetPoint" />
          </mxGeometry>
        </mxCell>
        <mxCell id="0nGfKhoNtDC8-pFZN1kh-126" value="" style="endArrow=open;endFill=1;endSize=12;html=1;rounded=0;entryX=1;entryY=0.5;entryDx=0;entryDy=0;" edge="1" parent="1" source="0nGfKhoNtDC8-pFZN1kh-60" target="0nGfKhoNtDC8-pFZN1kh-95">
          <mxGeometry width="160" relative="1" as="geometry">
            <mxPoint x="1500" y="400" as="sourcePoint" />
            <mxPoint x="1660" y="400" as="targetPoint" />
          </mxGeometry>
        </mxCell>
        <mxCell id="0nGfKhoNtDC8-pFZN1kh-127" value="" style="endArrow=open;endFill=1;endSize=12;html=1;rounded=0;exitX=0;exitY=1;exitDx=0;exitDy=0;entryX=0.5;entryY=0;entryDx=0;entryDy=0;entryPerimeter=0;" edge="1" parent="1" source="0nGfKhoNtDC8-pFZN1kh-95" target="0nGfKhoNtDC8-pFZN1kh-64">
          <mxGeometry width="160" relative="1" as="geometry">
            <mxPoint x="1500" y="400" as="sourcePoint" />
            <mxPoint x="1300" y="410" as="targetPoint" />
          </mxGeometry>
        </mxCell>
        <mxCell id="0nGfKhoNtDC8-pFZN1kh-128" value="" style="endArrow=open;endFill=1;endSize=12;html=1;rounded=0;" edge="1" parent="1" target="0nGfKhoNtDC8-pFZN1kh-65">
          <mxGeometry width="160" relative="1" as="geometry">
            <mxPoint x="1300" y="450" as="sourcePoint" />
            <mxPoint x="1660" y="400" as="targetPoint" />
          </mxGeometry>
        </mxCell>
        <mxCell id="0nGfKhoNtDC8-pFZN1kh-129" value="demande pièces" style="ellipse;whiteSpace=wrap;html=1;" vertex="1" parent="1">
          <mxGeometry x="1460" y="630" width="140" height="70" as="geometry" />
        </mxCell>
        <mxCell id="0nGfKhoNtDC8-pFZN1kh-131" value="" style="endArrow=open;endFill=1;endSize=12;html=1;rounded=0;exitX=0;exitY=1;exitDx=0;exitDy=0;exitPerimeter=0;entryX=0;entryY=0.5;entryDx=0;entryDy=0;" edge="1" parent="1" source="0nGfKhoNtDC8-pFZN1kh-64" target="0nGfKhoNtDC8-pFZN1kh-129">
          <mxGeometry width="160" relative="1" as="geometry">
            <mxPoint x="1500" y="400" as="sourcePoint" />
            <mxPoint x="1660" y="400" as="targetPoint" />
            <Array as="points">
              <mxPoint x="1297" y="665" />
            </Array>
          </mxGeometry>
        </mxCell>
        <mxCell id="0nGfKhoNtDC8-pFZN1kh-132" value="" style="endArrow=open;endFill=1;endSize=12;html=1;rounded=0;exitX=1;exitY=0.5;exitDx=0;exitDy=0;" edge="1" parent="1" source="0nGfKhoNtDC8-pFZN1kh-129" target="0nGfKhoNtDC8-pFZN1kh-63">
          <mxGeometry width="160" relative="1" as="geometry">
            <mxPoint x="1500" y="400" as="sourcePoint" />
            <mxPoint x="1660" y="400" as="targetPoint" />
          </mxGeometry>
        </mxCell>
        <mxCell id="0nGfKhoNtDC8-pFZN1kh-133" value="" style="endArrow=open;endFill=1;endSize=12;html=1;rounded=0;entryX=1;entryY=0.5;entryDx=0;entryDy=0;exitX=0.25;exitY=0.1;exitDx=0;exitDy=0;exitPerimeter=0;" edge="1" parent="1" source="0nGfKhoNtDC8-pFZN1kh-63" target="0nGfKhoNtDC8-pFZN1kh-66">
          <mxGeometry width="160" relative="1" as="geometry">
            <mxPoint x="1880" y="660" as="sourcePoint" />
            <mxPoint x="1660" y="400" as="targetPoint" />
          </mxGeometry>
        </mxCell>
        <mxCell id="0nGfKhoNtDC8-pFZN1kh-134" value="" style="endArrow=open;endFill=1;endSize=12;html=1;rounded=0;entryX=0;entryY=0.5;entryDx=0;entryDy=0;" edge="1" parent="1" source="0nGfKhoNtDC8-pFZN1kh-60" target="0nGfKhoNtDC8-pFZN1kh-108">
          <mxGeometry width="160" relative="1" as="geometry">
            <mxPoint x="1500" y="400" as="sourcePoint" />
            <mxPoint x="1660" y="400" as="targetPoint" />
          </mxGeometry>
        </mxCell>
        <mxCell id="0nGfKhoNtDC8-pFZN1kh-137" value="" style="endArrow=open;endFill=1;endSize=12;html=1;rounded=0;exitX=0.5;exitY=0.5;exitDx=0;exitDy=0;exitPerimeter=0;" edge="1" parent="1" source="0nGfKhoNtDC8-pFZN1kh-60" target="0nGfKhoNtDC8-pFZN1kh-59">
          <mxGeometry width="160" relative="1" as="geometry">
            <mxPoint x="1640" y="271" as="sourcePoint" />
            <mxPoint x="1750" y="310" as="targetPoint" />
          </mxGeometry>
        </mxCell>
        <mxCell id="0nGfKhoNtDC8-pFZN1kh-139" value="" style="endArrow=open;endFill=1;endSize=12;html=1;rounded=0;exitX=0.5;exitY=1;exitDx=0;exitDy=0;" edge="1" parent="1" source="0nGfKhoNtDC8-pFZN1kh-108" target="0nGfKhoNtDC8-pFZN1kh-61">
          <mxGeometry width="160" relative="1" as="geometry">
            <mxPoint x="1500" y="400" as="sourcePoint" />
            <mxPoint x="1660" y="400" as="targetPoint" />
          </mxGeometry>
        </mxCell>
        <mxCell id="0nGfKhoNtDC8-pFZN1kh-141" value="" style="endArrow=open;endFill=1;endSize=12;html=1;rounded=0;entryX=0.5;entryY=0;entryDx=0;entryDy=0;" edge="1" parent="1" source="0nGfKhoNtDC8-pFZN1kh-61" target="0nGfKhoNtDC8-pFZN1kh-62">
          <mxGeometry width="160" relative="1" as="geometry">
            <mxPoint x="1810" y="340" as="sourcePoint" />
            <mxPoint x="1660" y="400" as="targetPoint" />
          </mxGeometry>
        </mxCell>
        <mxCell id="0nGfKhoNtDC8-pFZN1kh-142" value="vérifie réparations" style="ellipse;whiteSpace=wrap;html=1;" vertex="1" parent="1">
          <mxGeometry x="1405" y="305" width="140" height="70" as="geometry" />
        </mxCell>
        <mxCell id="0nGfKhoNtDC8-pFZN1kh-143" value="" style="endArrow=open;endFill=1;endSize=12;html=1;rounded=0;" edge="1" parent="1" source="0nGfKhoNtDC8-pFZN1kh-60" target="0nGfKhoNtDC8-pFZN1kh-142">
          <mxGeometry width="160" relative="1" as="geometry">
            <mxPoint x="1500" y="400" as="sourcePoint" />
            <mxPoint x="1660" y="400" as="targetPoint" />
          </mxGeometry>
        </mxCell>
      </root>
    </mxGraphModel>
  </diagram>
</mxfile>
